<svg xmlns="http://www.w3.org/2000/svg" width="54" height="54" viewBox="0 0 54 54"><defs><style>.a{fill:#d1d111;}</style></defs><g transform="translate(-406.744 -691.752)"><g transform="translate(406.744 691.752)"><path class="a" d="M430.3,737.961a23.109,23.109,0,1,1,23.568-23.1A23.362,23.362,0,0,1,430.3,737.961Zm0-41.573a18.472,18.472,0,1,0,18.836,18.474A18.69,18.69,0,0,0,430.308,696.388Z" transform="translate(-406.744 -691.752)"/></g><g transform="translate(414.688 699.694)"><path class="a" d="M412.469,710.729h-2.364a15.643,15.643,0,0,1,15.619-15.617v2.364A13.277,13.277,0,0,0,412.469,710.729Z" transform="translate(-410.105 -695.112)"/></g><g transform="translate(442.856 727.865)"><path class="a" d="M437.547,725.3a2.347,2.347,0,0,1-1.671-.693l-13.163-13.159a2.364,2.364,0,1,1,3.345-3.342l13.161,13.159a2.364,2.364,0,0,1-1.671,4.035Z" transform="translate(-422.021 -707.417)"/></g></g></svg>