<svg xmlns="http://www.w3.org/2000/svg" width="54" height="54" viewBox="0 0 54 54"><defs><style>.a{fill:#d1d111;}</style></defs><g transform="translate(-345.43 -815.538)"><g transform="translate(345.43 815.538)"><path class="a" d="M372.435,869.538a27,27,0,1,1,27-27A27.032,27.032,0,0,1,372.435,869.538Zm0-49.371A22.371,22.371,0,1,0,394.8,842.538,22.4,22.4,0,0,0,372.435,820.167Z" transform="translate(-345.43 -815.538)"/></g><g transform="translate(370.024 823.853)"><path class="a" d="M358.509,841.207A2.408,2.408,0,0,1,356.1,838.8V821.4a2.411,2.411,0,1,1,4.822,0v17.4A2.41,2.41,0,0,1,358.509,841.207Z" transform="translate(-356.098 -818.987)"/></g><g transform="translate(370.024 815.538)"><path class="a" d="M358.509,821.922a2.408,2.408,0,0,1-2.411-2.411v-1.562a2.411,2.411,0,0,1,4.822,0v1.562A2.41,2.41,0,0,1,358.509,821.922Z" transform="translate(-356.098 -815.538)"/></g><g transform="translate(370.024 863.154)"><path class="a" d="M358.509,842.606a2.409,2.409,0,0,1-2.411-2.411v-1.562a2.411,2.411,0,0,1,4.822,0v1.562A2.41,2.41,0,0,1,358.509,842.606Z" transform="translate(-356.098 -836.222)"/></g><g transform="translate(393.044 840.123)"><path class="a" d="M370.088,831.023h-1.565a2.411,2.411,0,1,1,0-4.822h1.565a2.411,2.411,0,0,1,0,4.822Z" transform="translate(-366.113 -826.202)"/></g><g transform="translate(345.43 840.123)"><path class="a" d="M349.4,831.023h-1.562a2.411,2.411,0,1,1,0-4.822H349.4a2.411,2.411,0,1,1,0,4.822Z" transform="translate(-345.43 -826.202)"/></g><g transform="translate(352.129 822.235)"><g transform="translate(29.42)"><path class="a" d="M362.349,821.954a1.2,1.2,0,0,1-1.044-1.806l.706-1.227a1.205,1.205,0,0,1,2.09,1.2l-.706,1.227A1.207,1.207,0,0,1,362.349,821.954Z" transform="translate(-361.144 -818.316)"/></g><g transform="translate(8.063 36.965)"><path class="a" d="M352.957,838.225a1.208,1.208,0,0,1-1.044-1.806l.706-1.232a1.205,1.205,0,1,1,2.09,1.2L354,837.62A1.2,1.2,0,0,1,352.957,838.225Z" transform="translate(-351.754 -834.582)"/></g><g transform="translate(36.969 29.423)"><path class="a" d="M366.906,834.368a1.223,1.223,0,0,1-.6-.159l-1.222-.706a1.205,1.205,0,1,1,1.2-2.09l1.222.7a1.206,1.206,0,0,1-.6,2.252Z" transform="translate(-364.476 -831.253)"/></g><g transform="translate(0 8.062)"><path class="a" d="M350.646,824.976a1.2,1.2,0,0,1-.6-.159l-1.234-.706a1.205,1.205,0,1,1,1.2-2.09l1.232.706a1.2,1.2,0,0,1-.6,2.249Z" transform="translate(-348.209 -821.861)"/></g><g transform="translate(0)"><g transform="translate(8.067)"><path class="a" d="M353.668,821.954a1.2,1.2,0,0,1-1.044-.605l-.706-1.227a1.2,1.2,0,1,1,2.088-1.2l.706,1.227a1.2,1.2,0,0,1-1.044,1.806Z" transform="translate(-351.756 -818.316)"/></g><g transform="translate(29.423 36.964)"><path class="a" d="M363.07,838.225a1.2,1.2,0,0,1-1.044-.6l-.716-1.232a1.206,1.206,0,1,1,2.085-1.21l.714,1.232a1.2,1.2,0,0,1-1.039,1.811Z" transform="translate(-361.146 -834.582)"/></g><g transform="translate(0 29.423)"><path class="a" d="M349.414,834.368a1.207,1.207,0,0,1-.6-2.254l1.234-.7a1.207,1.207,0,0,1,1.193,2.1l-1.232.7A1.25,1.25,0,0,1,349.414,834.368Z" transform="translate(-348.209 -831.253)"/></g><g transform="translate(36.968 8.059)"><path class="a" d="M365.684,824.978a1.2,1.2,0,0,1-.6-2.247l1.222-.706a1.2,1.2,0,1,1,1.205,2.085l-1.222.706A1.191,1.191,0,0,1,365.684,824.978Z" transform="translate(-364.476 -821.859)"/></g></g></g><g transform="translate(362.931 840.224)"><path class="a" d="M355.486,838.137a2.411,2.411,0,0,1-1.7-4.115l7-6.994a2.411,2.411,0,0,1,3.411,3.409l-7,6.994A2.4,2.4,0,0,1,355.486,838.137Z" transform="translate(-353.076 -826.323)"/></g></g></svg>